ply
format ascii 1.0
comment VCGLIB generated
element vertex 16
property float x
property float y
property float z
element face 0
property list uchar int vertex_indices
end_header
-6.000000 -6.000000 0.000000 
-6.000000 -2.000000 0.000000 
-6.000000 2.000000 0.000000 
-6.000000 6.000000 0.000000 
-2.000000 -6.000000 0.000000 
-2.000000 -2.000000 20.000000 
-2.000000 2.000000 20.000000 
-2.000000 6.000000 0.000000 
2.000000 -6.000000 0.000000 
2.000000 -2.000000 20.000000 
2.000000 2.000000 20.000000 
2.000000 6.000000 0.000000 
6.000000 -6.000000 0.000000 
6.000000 -2.000000 0.000000 
6.000000 2.000000 0.000000 
6.000000 6.000000 0.000000 
