ply
format ascii 1.0
comment VCGLIB generated
element vertex 11
property float x
property float y
property float z
property float nx
property float ny
property float nz
element face 0
property list uchar int vertex_indices
end_header
-0.074707 0.092782 0.029231 1.117310 -0.139933 6.181010 
-0.081785 0.085611 0.028940 -0.404625 -0.143703 6.267550 
-0.074186 0.092058 0.029125 1.048250 -0.235804 6.188820 
-0.074784 0.090623 0.029083 0.893201 -0.662642 6.180600 
-0.080587 0.084911 0.029021 -0.184672 0.022181 6.269450 
-0.082961 0.090610 0.028907 -0.448706 0.058357 6.266750 
-0.081770 0.086319 0.028967 -0.403956 -0.047348 6.256590 
-0.074185 0.092774 0.029127 1.052500 -0.165519 6.185160 
-0.082972 0.092041 0.028889 -0.387170 0.150395 6.268660 
-0.084916 0.082750 0.028485 -1.441150 0.134273 6.113800 
-0.081766 0.089900 0.028982 -0.160061 -0.101580 6.279160 
